<svg width="1440" height="455" viewBox="0 0 1440 455" fill="none" xmlns="http://www.w3.org/2000/svg">
<g clip-path="url(#clip0_414_3)">
<path d="M871.875 17C871.875 17.5 872.437 18 873.112 18C873.675 18 873.9 17.5 873.562 17C873.225 16.4 872.662 16 872.325 16C872.1 16 871.875 16.4 871.875 17Z" fill="url(#paint0_linear_414_3)"/>
<path d="M265.5 172.7C264.6 173 262.575 174.2 261 175.4C258.187 177.5 258.187 177.6 258.525 192.7C258.637 201.1 258.975 208 259.312 208C259.537 208 261.112 207.5 262.8 207C265.387 206.1 265.612 206.2 264.487 207.4C263.812 208.1 261.675 209 259.875 209.2C257.4 209.5 256.5 209.2 255.825 207.6C255.375 206.4 254.587 217.6 254.025 232.5C253.462 247.3 252.787 260.1 252.562 260.7C251.775 262.7 246.937 262.2 244.687 260C243.112 258.4 241.2 258 236.362 258C230.512 258 229.837 258.3 227.587 261.3C226.125 263 225 263.9 225 263.2C225 262.6 224.55 262 223.987 262C223.537 262 222.75 272.2 222.3 284.7C220.5 340.9 219.15 367.6 218.137 368.5C217.35 369.2 216.45 368.8 215.325 367.5C213.637 365.5 213.637 365.5 211.5 368C210.262 369.4 209.25 371.6 209.25 372.9C209.25 375.7 207.45 374.7 206.775 371.5C206.55 370.3 204.75 369 201.937 368.1C199.462 367.3 196.987 366 196.537 365.3C195.412 363.7 188.662 364.5 184.837 366.6C181.462 368.5 178.425 368.4 179.325 366.5C179.662 365.7 179.437 365 178.762 365C178.087 365 177.975 364.5 178.425 363.9C179.437 362.5 172.575 357 169.762 357C168.412 357 167.625 356.3 167.625 355C167.625 352.1 165.375 352.6 161.887 356.2L158.737 359.5L158.625 354.2C158.625 349.1 158.737 348.9 161.212 349.5L163.687 350.1L161.212 348.2C158.962 346.4 158.85 345.4 158.737 329.9C158.625 320.9 158.175 313.2 157.725 312.9C157.275 312.5 151.65 311.7 145.125 311.1C131.4 309.8 129.037 308.4 126.675 300.4C125.212 295.8 125.1 295.7 124.312 298.2C123.187 301.9 121.612 301.7 120.712 298C120.15 295.4 119.7 295.1 117.675 295.6C113.85 296.7 110.25 299.1 110.25 300.6C110.25 301.4 109.687 302 109.012 302C108.337 302 108 302.6 108.337 303.3C108.675 304 107.887 305.2 106.762 305.9C103.95 307.4 102.487 310.9 101.812 317.2C101.137 324.6 100.125 324.3 100.125 316.7C100.125 312.9 99.675 310 99 310C98.325 310 97.875 314.1 97.875 320.2C97.875 329 97.5375 330.7 95.625 332.5C93.9375 334.1 93.375 336.1 93.2625 341.8C93.15 347.9 92.7 349.3 90.7875 350.5C88.875 351.7 88.7625 352.2 90 353.5C92.8125 356.5 90.225 356 86.7375 352.8C84.0375 350.4 83.25 350 83.25 351.4C83.25 352.3 82.575 353 81.675 352.8C78.075 352.2 79.5375 354.4 83.25 355.4C86.625 356.2 86.85 356.4 84.6 356.8C80.8875 357.3 81.5625 358.7 86.2875 360.1C88.65 360.7 90.9 361.8 91.35 362.3C92.475 364 91.125 365.1 88.875 364.5C87.75 364.2 86.5125 364.4 86.0625 365C85.5 365.8 84.825 365.6 83.925 364.5C82.4625 362.6 72 361.5 72 363.1C72 363.6 70.875 364.5 69.525 365L66.9375 365.9L69.4125 366.6C70.875 366.9 72 367.7 72 368.4C72 369 72.3375 370.5 72.675 371.7C73.2375 373.5 72.9 374 71.325 374C67.725 374 65.7 372.4 67.275 370.8C68.2875 369.6 67.6125 369.4 63.225 369.4L57.9375 369.5L57.825 364.7C57.6 359 57.15 358.5 54.225 360.1C52.0875 361.3 52.0875 361.3 54.1125 363.1C56.475 365.2 56.925 368 55.0125 368C54.3375 368 54.1125 368.7 54.45 369.6C54.9 370.8 54.675 371.1 53.4375 370.6C51.6375 370 50.625 372.7 50.9625 377C51.1875 379.5 51.075 379.5 41.85 379.5C32.9625 379.5 30.0375 378.9 32.625 377.5C34.65 376.4 33.75 375 30.9375 375C28.575 375 28.125 375.5 28.125 378C28.125 380.5 27.675 381 25.425 381C23.85 381 22.275 381.5 21.825 382.2C21.2625 382.9 20.475 381.9 19.575 379.4C18.9 377.3 18.225 376.3 18.1125 377.4C18 379 17.4375 378.8 14.4 376.1C11.25 373.4 10.575 373.1 9.5625 374.4C8.4375 375.6 8.1 375.6 6.975 373.9C4.8375 370.9 1.575 371.5 0.675 375.1C0.3375 376.8 0 466.2 0 573.6V769H720H1440V518.7C1440 381.1 1439.55 267.9 1439.1 267.2C1438.31 266.2 1437.41 266.2 1434.26 267.4C1427.29 269.9 1407.37 271.1 1367.66 271.3C1330.87 271.5 1328.4 271.4 1327.39 269.7C1326.71 268.7 1324.91 267.5 1323.45 267C1321.09 266.2 1320.75 265.4 1320.75 261.1V256.2L1315.12 255C1310.4 254 1309.39 253.4 1308.82 251.1C1308.49 249.7 1307.59 247.4 1306.91 246.2C1305.9 244.2 1306.01 243.7 1307.59 242.8C1309.5 241.9 1309.5 241.7 1307.59 238.9C1306.57 237.3 1304.77 236 1303.65 236C1300.84 236 1301.06 232.9 1303.87 232.3C1305.11 232 1306.12 231.4 1306.12 231C1306.12 230.6 1305.11 230 1303.87 229.7C1301.29 229.1 1300.84 226 1303.31 226C1304.21 226 1305 225.3 1305 224.5C1305 223.7 1304.21 223 1303.31 223C1301.96 223 1301.62 221.6 1301.62 216.2C1301.62 206.1 1299.82 205.2 1298.81 214.9C1298.36 219.3 1297.8 223 1297.46 223C1297.12 223 1294.87 222.5 1292.51 221.9C1289.14 220.9 1287.79 221 1286.44 222C1284.3 223.6 1284.52 229.4 1286.77 229.6C1287.45 229.7 1288.91 229.8 1289.81 229.9C1290.71 229.9 1291.5 230.7 1291.5 231.5C1291.5 232.5 1290.37 233 1288.01 233C1284.19 233 1283.85 235.4 1287.67 235.6C1292.85 235.8 1293.75 236.1 1293.75 237.6C1293.75 238.9 1292.85 239.1 1289.81 238.8C1286.77 238.5 1285.87 238.8 1285.87 240C1285.87 241.1 1286.77 241.6 1288.46 241.6C1289.92 241.5 1290.94 242.1 1290.94 243C1290.94 243.9 1289.81 244.5 1288.12 244.5C1285.54 244.5 1285.31 245 1284.97 249.2C1284.64 253.1 1284.3 253.9 1282.16 254.2C1280.59 254.4 1279.57 255.3 1279.35 256.8C1279.12 258 1278 259.5 1276.87 260C1275.64 260.6 1274.29 262.5 1273.72 264.3C1273.05 266.8 1272.15 267.6 1269.67 267.8C1267.99 268 1266.3 268.8 1266.07 269.5C1265.74 270.2 1263.49 271.2 1261.01 271.5C1255.39 272.4 1254.15 274.8 1255.72 281.5C1257.41 288.6 1256.51 344.2 1254.6 346.2C1253.59 347.4 1253.47 348.5 1254.37 350.4C1255.05 352.2 1255.16 353.8 1254.37 354.9C1253.7 356.1 1253.81 357.1 1254.6 357.8C1255.72 358.8 1255.5 362.8 1253.81 369.5C1253.47 371.1 1252.91 373.5 1252.57 374.7C1252.35 376 1251.34 377 1250.44 377C1248.07 377 1248.3 379 1250.77 379C1251.9 379.1 1251 379.9 1248.52 381C1245.15 382.6 1243.8 382.8 1240.99 381.9C1237.05 380.7 1236.49 379.4 1236.15 370.5C1235.81 364.8 1235.7 364.5 1232.77 364.2C1230.3 363.9 1229.62 363.3 1229.62 361.4C1229.62 357.5 1225.46 356.8 1202.62 356.6C1191.15 356.4 1180.46 356 1178.66 355.6C1176.75 355.1 1175.06 355.2 1173.94 356C1173.04 356.7 1170.79 357 1168.87 356.8C1165.72 356.4 1165.5 356.6 1164.82 360.8C1164.26 364 1163.47 365.4 1161.56 366C1158.86 366.9 1157.62 370.4 1157.62 377.6C1157.62 385.2 1155.04 388.3 1149.52 387.2C1148.4 387 1147.5 386.2 1147.5 385.3C1147.5 384.5 1146.82 384.1 1146.15 384.4C1145.36 384.6 1142.66 385.4 1140.19 386.1C1137.71 386.8 1134.79 388 1133.66 388.8C1131.41 390.6 1121.62 391.3 1121.96 389.7C1122.07 389.1 1121.29 388.6 1120.16 388.5C1119.04 388.5 1117.69 387.8 1117.12 387C1116.22 385.8 1116 385.8 1115.89 387.5C1115.1 395.3 1113.97 372.6 1113.86 348.8L1113.75 320.2L1109.14 311.4C1104.86 303.1 1104.52 301.8 1103.96 290.8C1103.62 284.3 1102.95 279.3 1102.5 279.5C1102.05 279.7 1101.15 284.5 1100.25 290.1L1098.79 300.2L1090.8 299.5C1086.41 299.1 1082.47 298.6 1082.14 298.4C1081.69 298.2 1081.01 293.5 1080.56 288C1079.66 276.5 1077.75 273.6 1077.75 283.6C1077.75 293.4 1075.61 302.6 1071.56 310.5C1068.07 317.3 1067.96 318.4 1066.95 335.5C1066.39 345.4 1066.05 357.9 1066.16 363.2C1066.39 372.3 1066.27 373 1064.25 373C1063.01 373 1061.1 372 1059.86 370.9C1058.4 369.5 1056.82 368.9 1055.36 369.3C1053.79 369.6 1053 369.3 1053 368.4C1053 366.7 1049.51 365 1045.8 365C1043.44 365 1042.87 364.5 1042.87 362.6C1042.87 361.2 1042.31 359.8 1041.64 359.4C1040.06 358.6 1038.37 360.8 1038.37 363.7C1038.37 365.4 1037.7 366 1035.9 366C1034.21 366 1032.41 367.2 1030.72 369.5C1029.37 371.4 1027.57 373 1026.67 373C1025.66 373 1024.99 375.4 1024.42 381.6C1023.64 391.6 1022.06 395.4 1020.82 390.4C1020.15 387.4 1019.7 387.2 1014.07 386.5C1010.81 386.2 1006.87 385 1005.19 383.8C1002.15 381.7 1002.04 381.7 990.562 384.1C987.525 384.7 982.8 385.3 980.212 385.3C976.05 385.4 975.375 385.8 974.812 388.1C974.137 390.6 973.8 390.7 963.787 391.4C955.575 391.9 953.1 392.4 951.75 393.9C950.85 394.9 948.825 396.3 947.362 397C945.45 397.9 945.112 398.5 946.012 399.3C947.812 400.9 947.587 406 945.787 406C945 406 943.312 405.3 942.075 404.5C940.95 403.7 938.25 403 936.337 403C933.412 403 932.512 402.5 932.062 400.7C931.275 397.6 928.125 380.7 928.125 379.6C928.125 376.8 926.775 380.7 925.2 388C924.3 392.7 923.062 396.9 922.725 397.5C922.275 398 921.937 398.9 921.937 399.5C921.6 402.2 919.687 403.9 916.312 404.4C914.175 404.8 911.925 405.8 911.362 406.8C910.462 408 910.125 405.8 910.125 399V389.5L906.075 387.7C903.937 386.8 901.125 386 899.887 386C898.65 386 897.975 385.6 898.312 385C898.762 384.4 896.962 384 893.925 384H888.75V377.5V371H883.237C880.2 371 876.487 370.6 875.025 370.1C872.775 369.3 862.537 370.4 860.737 371.6C860.512 371.8 860.062 374.5 859.612 377.7L858.937 383.5L854.212 383.8L849.375 384.1V360.2C849.375 347.1 849.037 333.6 848.7 330.3L847.912 324.2L832.387 323.5C817.425 322.8 816.75 322.7 816.637 320.7V318.5L815.4 320.6C814.612 322.2 812.475 323.1 807.637 323.9L801 325.1V340.9V356.8L797.175 357.4C794.137 357.9 792.9 358.9 790.987 362.3C789.187 365.6 787.725 366.7 784.462 367.5L780.187 368.6L779.4 381C778.95 387.9 778.275 394.1 777.937 394.8C777.262 396.5 767.587 396 753.862 393.6C743.287 391.7 741.375 390.8 742.162 388C742.5 386.9 742.05 385 741.037 383.7C739.8 381.9 739.575 380.3 740.25 376.9C740.812 374.4 740.812 372.1 740.25 371.6C738.787 370.3 738.337 372.2 737.55 381.3C736.762 390.1 735.525 393 732.375 393C730.35 393 730.125 392.1 729.9 380.8L729.562 368.6L726.187 367.8C724.387 367.3 719.1 366.8 714.712 366.8L706.5 366.6V361.9C706.5 357.4 706.275 357.1 703.462 356.8C700.425 356.5 700.312 356.2 699.75 349.5L699.075 342.5L698.625 349.5C698.062 356.2 697.95 356.5 695.137 356.8L692.212 357.1L691.537 372.2C691.087 380.5 690.75 390.6 690.75 394.6C690.75 400.2 690.412 401.9 688.95 402.4C687.937 402.7 686.7 402.8 686.137 402.4C685.575 402.1 685.125 388.5 685.125 371.1V340.3L680.625 339.6C676.125 339 676.125 339 676.012 334.2C675.787 325 675.45 324.6 665.437 323.5C657.337 322.6 656.437 322.3 655.762 320L654.975 317.5L654.862 320.2L654.75 323H645.862C632.812 323 632.925 322.7 631.237 347.8C630.675 355.7 629.887 362.4 629.55 362.7C629.212 363.1 628.875 355.7 628.875 346.3V329.2L625.387 328.6C623.475 328.3 620.662 328 619.312 328C617.962 328 616.162 327.3 615.375 326.5C614.25 325.4 611.325 325 602.887 325C596.7 325 590.85 325.4 589.725 326C588.712 326.5 585.337 327.3 582.187 327.8C577.125 328.5 576.562 328.8 576.225 331.3C576 332.8 575.212 334 574.537 334C570.15 334.1 569.812 335.5 569.137 354.7L568.575 373.5L568.35 351.9L568.125 330.2L564.862 329.1C561.262 327.7 522.787 327.9 521.212 329.3C520.425 330.1 519.075 353.2 518.737 372.2C518.625 378.8 518.512 379 515.7 379C514.125 379 511.312 378.1 509.512 376.9C507.712 375.8 505.462 375 504.675 375.3C502.987 375.9 501.75 372.1 501.75 366.4C501.75 363.6 501.3 363 499.275 363C494.325 362.9 488.925 359.7 488.137 356.5L487.35 353.5L487.125 356.5C487.012 359 486.787 359.2 486.112 357.6C485.325 355.7 485.212 355.7 484.65 357.8C483.975 359.9 483.3 360 474.187 360C465.525 360 464.4 359.8 463.837 358.1C463.275 356.3 462.487 356.1 448.65 354.3L444.375 353.8V328.5V303.2L440.212 302.6C437.85 302.2 434.362 301.9 432.45 301.9C429.412 302 427.5 300.7 419.85 293.5C414.9 288.8 410.512 284 410.287 282.8C409.837 280.7 409.837 280.7 409.612 282.6C409.612 283.8 408.262 285.2 406.687 285.8C404.1 286.9 403.875 287.4 403.875 294.2C403.875 300.4 403.537 301.7 401.625 302.8C399.487 303.9 399.375 305.1 399.375 319.4V334.7L387.45 334.6C376.537 334.5 375.412 334.7 373.612 336.7C372.487 337.8 370.35 339 368.887 339.2C366.525 339.5 366.075 340.1 365.625 344.5L365.062 349.5H358.425C352.237 349.6 351.45 349.9 348.187 353.3C346.275 355.3 343.35 357.4 341.662 357.9C338.85 358.9 338.625 359.3 338.625 365.4C338.625 372.4 337.95 372.9 330.187 373C322.312 373.1 321.75 373.6 321.75 381.2C321.75 387.5 321.637 388 319.95 386.6C319.05 385.7 317.7 385 317.137 385C316.575 385 316.125 374.7 316.125 360C316.125 341.6 315.787 335 314.775 335C314.1 335 312.75 334.3 311.737 333.4C310.725 332.5 306.45 330.1 302.062 328.1L294.187 324.4L293.85 293.7L293.625 263L291.037 262.5C289.687 262.2 286.537 261.6 284.062 261.2L279.562 260.4V246.5C279.562 238.8 280.012 226.4 280.462 219C281.025 210.7 280.912 206 280.237 206.9C278.325 209.4 276.412 204.3 277.312 199.1C278.775 191.2 278.1 179.6 276.187 178.4C274.95 177.6 274.95 177 275.85 176.2C276.75 175.4 276.412 174.8 274.387 174.2C269.55 172.5 267.187 172.2 265.5 172.7ZM266.625 178.4C266.625 179.5 264.487 179.9 263.812 179C263.475 178.5 263.925 178 264.825 178C265.837 178 266.625 178.2 266.625 178.4ZM268.65 188.7C270.225 189.9 270.225 190 268.537 190C266.287 190 265.95 191.6 268.087 192.3C268.762 192.6 267.525 192.9 265.275 192.9C261.562 193 261 192.7 261 190.7C261 189.5 261.45 188 261.9 187.4C263.137 185.8 265.95 185.1 266.512 186.4C266.737 187 267.637 188.1 268.65 188.7ZM266.625 196.1C266.625 197.2 263.587 197.3 262.8 196.1C262.462 195.7 262.462 195 262.8 194.7C263.7 193.9 266.625 195 266.625 196.1ZM265.05 201.5C264.937 204.7 261.787 204.4 261.562 201.2C261.45 199.7 262.012 199 263.362 199C264.712 199 265.162 199.7 265.05 201.5ZM1293.52 225.3C1293.86 226.6 1293.07 227 1290.49 227C1286.21 227 1284.97 225.3 1288.35 224.1C1291.61 222.9 1293.07 223.2 1293.52 225.3ZM1298.02 227.7C1297.46 230.2 1294.87 230.5 1294.87 228.1C1294.87 226.9 1295.55 226 1296.67 226C1297.69 226 1298.25 226.7 1298.02 227.7ZM1297.8 233C1298.7 233 1299.04 233.6 1298.7 234.5C1297.69 236.6 1295.66 236.4 1293.86 233.9C1292.62 232 1292.62 231.8 1294.31 232.4C1295.32 232.7 1296.9 233 1297.8 233ZM1297.69 242C1297.12 242.8 1296.45 242.8 1295.77 242.2C1295.1 241.6 1294.99 240.6 1295.44 240C1296 239.2 1296.67 239.2 1297.35 239.8C1298.02 240.4 1298.14 241.4 1297.69 242ZM1290.71 249.5C1290.37 250.3 1289.7 251 1289.14 251C1288.01 251 1287.79 248.6 1288.8 247.7C1290.04 246.6 1291.5 248 1290.71 249.5ZM1395.45 279.2C1403.1 279.6 1403.32 281.6 1395.9 282.7C1390.39 283.5 1389.94 283.7 1389.6 286.5C1388.81 293.9 1388.81 294 1381.72 294C1371.26 294 1371.49 293.5 1371.15 316.2C1370.92 328.6 1370.36 336.3 1369.57 337C1368.9 337.6 1361.7 338.7 1353.49 339.5C1345.39 340.3 1336.84 341.2 1334.47 341.5C1326.71 342.5 1326.94 343.4 1326.94 310.5C1326.94 285.3 1327.16 280.8 1328.62 280C1329.52 279.4 1342.57 279 1358.1 279C1376.21 279 1386.11 278.6 1386.56 278C1387.12 277.3 1387.8 277.2 1388.7 277.9C1389.37 278.4 1392.52 279 1395.45 279.2ZM159.412 363.2C159.075 364 158.737 363.7 158.737 362.6C158.625 361.5 158.962 360.9 159.3 361.3C159.637 361.6 159.75 362.5 159.412 363.2ZM83.25 368.6C83.25 369.8 82.4625 370.1 80.4375 369.8C78.525 369.4 77.625 369.7 77.625 370.7C77.625 372.3 75.2625 372.1 75.15 370.5C75.0375 369.4 79.65 367 81.9 367C82.575 367 83.25 367.7 83.25 368.6ZM82.35 373.2C81.5625 373.9 81 374 81 373.4C81 372 82.35 370.8 83.1375 371.5C83.3625 371.8 83.025 372.6 82.35 373.2ZM87.4125 373.2C87.075 374 86.7375 373.7 86.7375 372.6C86.625 371.5 86.9625 370.9 87.3 371.3C87.6375 371.6 87.75 372.5 87.4125 373.2ZM78.4125 373.6C78.075 373.9 77.0625 374 76.275 373.7C75.375 373.4 75.7125 373.1 76.95 373.1C78.1875 373 78.8625 373.3 78.4125 373.6ZM857.362 399.2C856.462 402.2 856.35 401.9 856.237 395.9C856.125 392.3 856.462 389 857.025 388.6C858.262 387.4 858.6 395.4 857.362 399.2ZM1140.75 389C1138.5 390.3 1135.91 390.3 1136.81 389C1137.15 388.4 1138.61 388 1139.96 388C1141.99 388 1142.1 388.2 1140.75 389Z" fill="url(#paint1_linear_414_3)"/>
<path d="M255.487 176.6C255.487 177.7 255.824 178 256.162 177.2C256.499 176.5 256.387 175.6 256.049 175.3C255.712 174.9 255.374 175.5 255.487 176.6Z" fill="url(#paint2_linear_414_3)"/>
<path d="M253.463 184.5C253.463 186.7 253.688 187.5 253.913 186.2C254.138 185 254.138 183.2 253.913 182.2C253.575 181.3 253.35 182.3 253.463 184.5Z" fill="url(#paint3_linear_414_3)"/>
<path d="M486.675 309.7C485.55 315.9 485.888 335 487.125 335C487.8 335 488.25 329.5 488.25 320.5C488.25 312.5 488.025 306 487.8 306C487.575 306 487.125 307.7 486.675 309.7Z" fill="url(#paint4_linear_414_3)"/>
<path d="M89.5501 346.9C89.1001 347.6 88.9876 348.4 89.3251 348.7C90.3376 349.6 91.4626 348.3 90.9001 346.9C90.4501 345.8 90.2251 345.8 89.5501 346.9Z" fill="url(#paint5_linear_414_3)"/>
<path d="M55.5741 356.5C53.5491 357.8 53.5491 357.9 56.0241 357.3C57.3742 357 58.8367 356.4 59.1742 355.9C60.0742 354.5 58.0492 354.8 55.5741 356.5Z" fill="url(#paint6_linear_414_3)"/>
<path d="M60.1879 360C59.8504 360.5 60.0754 361 60.6379 361C61.3129 361 61.8754 360.5 61.8754 360C61.8754 359.4 61.6504 359 61.4254 359C61.0879 359 60.5254 359.4 60.1879 360Z" fill="url(#paint7_linear_414_3)"/>
<path d="M511.201 370.9C511.538 372.7 511.876 374.6 511.876 375.1C511.876 375.6 512.438 376 513.001 376C514.238 376 513.338 371.5 511.651 369C510.976 368 510.751 368.6 511.201 370.9Z" fill="url(#paint8_linear_414_3)"/>
</g>
<defs>
<linearGradient id="paint0_linear_414_3" x1="872.798" y1="18" x2="872.798" y2="16" gradientUnits="userSpaceOnUse">
<stop stop-color="#D4DAF7"/>
<stop offset="0.375" stop-color="#D4DAF7" stop-opacity="0.84375"/>
<stop offset="1" stop-color="#E9EDFB" stop-opacity="0"/>
</linearGradient>
<linearGradient id="paint1_linear_414_3" x1="720" y1="769" x2="720" y2="172.481" gradientUnits="userSpaceOnUse">
<stop stop-color="#D4DAF7"/>
<stop offset="0.375" stop-color="#D4DAF7" stop-opacity="0.84375"/>
<stop offset="1" stop-color="#E9EDFB" stop-opacity="0"/>
</linearGradient>
<linearGradient id="paint2_linear_414_3" x1="255.915" y1="177.652" x2="255.915" y2="175.176" gradientUnits="userSpaceOnUse">
<stop stop-color="#D4DAF7"/>
<stop offset="0.375" stop-color="#D4DAF7" stop-opacity="0.84375"/>
<stop offset="1" stop-color="#E9EDFB" stop-opacity="0"/>
</linearGradient>
<linearGradient id="paint3_linear_414_3" x1="253.758" y1="186.826" x2="253.758" y2="181.87" gradientUnits="userSpaceOnUse">
<stop stop-color="#D4DAF7"/>
<stop offset="0.375" stop-color="#D4DAF7" stop-opacity="0.84375"/>
<stop offset="1" stop-color="#E9EDFB" stop-opacity="0"/>
</linearGradient>
<linearGradient id="paint4_linear_414_3" x1="487.12" y1="335" x2="487.12" y2="306" gradientUnits="userSpaceOnUse">
<stop stop-color="#D4DAF7"/>
<stop offset="0.375" stop-color="#D4DAF7" stop-opacity="0.84375"/>
<stop offset="1" stop-color="#E9EDFB" stop-opacity="0"/>
</linearGradient>
<linearGradient id="paint5_linear_414_3" x1="90.0897" y1="348.997" x2="90.0897" y2="346.075" gradientUnits="userSpaceOnUse">
<stop stop-color="#D4DAF7"/>
<stop offset="0.375" stop-color="#D4DAF7" stop-opacity="0.84375"/>
<stop offset="1" stop-color="#E9EDFB" stop-opacity="0"/>
</linearGradient>
<linearGradient id="paint6_linear_414_3" x1="56.7496" y1="357.653" x2="56.7496" y2="355.013" gradientUnits="userSpaceOnUse">
<stop stop-color="#D4DAF7"/>
<stop offset="0.375" stop-color="#D4DAF7" stop-opacity="0.84375"/>
<stop offset="1" stop-color="#E9EDFB" stop-opacity="0"/>
</linearGradient>
<linearGradient id="paint7_linear_414_3" x1="60.9523" y1="361" x2="60.9523" y2="359" gradientUnits="userSpaceOnUse">
<stop stop-color="#D4DAF7"/>
<stop offset="0.375" stop-color="#D4DAF7" stop-opacity="0.84375"/>
<stop offset="1" stop-color="#E9EDFB" stop-opacity="0"/>
</linearGradient>
<linearGradient id="paint8_linear_414_3" x1="512.272" y1="376" x2="512.272" y2="368.534" gradientUnits="userSpaceOnUse">
<stop stop-color="#D4DAF7"/>
<stop offset="0.375" stop-color="#D4DAF7" stop-opacity="0.84375"/>
<stop offset="1" stop-color="#E9EDFB" stop-opacity="0"/>
</linearGradient>
<clipPath id="clip0_414_3">
<rect width="1440" height="455" fill="white"/>
</clipPath>
</defs>
</svg>
